. 
  
http://www.torrenting.com/        :     Greatest Movie Tracker on The Net!!!
 
http://www.Torrenting.com          :     Once & For all ;)


               www . Torrenting . Com 

(((((((((((((= Enjoy No RAR releases =))))))))))))))))))))


...................................NFO:....................................

.                                                                                                     
       
     
     
       
       
     
     
                                         
                                         
                EXVID                    
                                         
         
                                         
         Filled the Archives             
                                         
         
                                         
                With:                    
                                         
         
                                         
                                    
     E240                           
                                    
     SP               (C) 2009      
                                         
     
     
     
                                                                                  
                                                                                   
                    Scream.4.2011.WS.BDRip.XviD-EXViD                               
                                                                                   
                                                                                  
     
                                                                                               
EXViD aims to iNTERNAL those releases which have been lost in the archives.
EXViD aims to PRE non-internal releases which have poor sources and are likely skipped by others. 
http://www.imdb.com/title/tt1262416/
Subtitles: English HI
Date: 2011.08

Director: Wes Craven

Genres: Horror | Mystery | Thriller

Plot:
Sidney Prescott, now the author of a self-help book, returns home to Woodsboro on the last stop
of her book tour. There she reconnects with Sheriff Dewey and Gale, who are now married, as
well as her cousin Jill and her Aunt Kate. Unfortunately, Sidney's appearance also brings about
the return of Ghostface, putting Sidney, Gale, and Dewey, along with Jill, her friends, and the
whole town of Woodsboro in danger.

Cast:
Lucy Hale 	 ... 	 Sherrie Marconi
Shenae Grimes 	 ... 	 Trudie Harrold
Roger Jackson 	 ... 	 The Voice (voice)
Dane Farwell 	 ... 	 Ghostface
Anna Paquin 	 ... 	 Rachel Milles
Kristen Bell 	 ... 	 Chloe Garrett
Brittany Robertson 	 ... 	 Marnie Cooper
Neve Campbell 	 ... 	 Sidney Prescott
Alison Brie 	 ... 	 Rebecca Walters
David Arquette 	 ... 	 Dewey Riley
Courteney Cox 	 ... 	 Gale Weathers-Riley
Aimee Teegarden 	 ... 	 Jenny Randall
Hayden Panettiere 	 ... 	 Kirby Reed
Emma Roberts 	 ... 	 Jill Roberts
Marielle Jaffe 	 ... 	 Olivia Morris

Stats:
Format                           : AVI
Format/Info                      : Audio Video Interleave
File size                        : 702 MiB
Duration                         : 1h 50mn
Overall bit rate                 : 886 Kbps
Writing application              : Nandub v1.0rc2
Writing library                  : Nandub build 1852/release

Video
ID                               : 0
Format                           : MPEG-4 Visual
Format profile                   : Advanced Simple@L5
Format settings, BVOP            : 2
Format settings, QPel            : No
Format settings, GMC             : No warppoints
Format settings, Matrix          : Default (H.263)
Codec ID                         : XVID
Codec ID/Hint                    : XviD
Duration                         : 1h 50mn
Bit rate                         : 749 Kbps
Width                            : 624 pixels
Height                           : 256 pixels
Display aspect ratio             : 2.40:1
Frame rate                       : 23.976 fps
Color space                      : YUV
Chroma subsampling               : 4:2:0
Bit depth                        : 8 bits
Scan type                        : Progressive
Compression mode                 : Lossy
Bits/(Pixel*Frame)               : 0.196
Stream size                      : 594 MiB (85%)
Writing library                  : XviD 64

Audio
ID                               : 1
Format                           : MPEG Audio
Format version                   : Version 1
Format profile                   : Layer 3
Mode                             : Joint stereo
Codec ID                         : 55
Codec ID/Hint                    : MP3
Duration                         : 1h 50mn
Bit rate mode                    : Variable
Bit rate                         : 128 Kbps
Channel(s)                       : 2 channels
Sampling rate                    : 48.0 KHz
Compression mode                 : Lossy
Stream size                      : 97.9 MiB (14%)
Alignment                        : Aligned on interleaves
Interleave, duration             : 24 ms (0.58 video frame)
Interleave, preload duration     : 465 ms
Writing library                  : LAME3.98r
Encoding settings                : -m j -V 4 -q 3 -lowpass 17 --abr 128




Release notes:
TWiZTED rls was 1.78:1. Retail DVD and BD are 2.40:1. Raw m2ts sample included for proof.

enjoy!

Looking for:
75TB+ Archives
DUTCH/FLEMiSH Archives
                                                                                                    
Greets: CRBS EPiSODE FiCO FLS iLS KLASSiGER LiPSYNC MADE NODLABS RUNNER SPRiNTER      
   

                                                                    ASCII DONE BY XX^NFO 2oo9